# xmcd
#
# Track frame offsets:
#	150
#	16170
#	34247
#	49792
#	66170
#	81340
#	96557
#	109235
#	123757
#	136907
#	159402
#	174600
#	187422
#	203227
#
# Disc length: 2897 seconds
#
# Revision: 2
# Processed by: cddbd v1.5.2PL0 Copyright (c) Steve Scherf et al.
# Submitted via: EasyCDDAExtractor 11.1.0.1
#
DISCID=c70b4f0e
DTITLE=Various Artist - Mr. Music Country 97/09
DYEAR=1900
DGENRE=Country
TTITLE0=Bo Renfro - While I Was Dancing the Tennessee Waltz
TTITLE1=Brett James - She's Killin' Me
TTITLE2=Paul Overstreet - Mr. Miller
TTITLE3=Linda Davis - Love Story in the Making
TTITLE4=BR5-49 - Little Ramona 
TTITLE5=Lorrie Morgan - Good As I Was to You
TTITLE6=Jason Campbell - Barroom Angel
TTITLE7=Inger Nordström - Next Best Thing
TTITLE8=Ty England - It Starts with L
TTITLE9=Pam Tillis - Tequila Mockingbird
TTITLE10=Sherrie Austin - Lucky in Love
TTITLE11=Dale Davis - Just a Memory
TTITLE12=Duke Michaels - Closing Time
TTITLE13=Janell Rae - Ain't No Big News
EXTD=
EXTT0=
EXTT1=
EXTT2=
EXTT3=
EXTT4=
EXTT5=
EXTT6=
EXTT7=
EXTT8=
EXTT9=
EXTT10=
EXTT11=
EXTT12=
EXTT13=
PLAYORDER=
